<svg xmlns="http://www.w3.org/2000/svg" version="1.1" xmlns:xlink="http://www.w3.org/1999/xlink" xmlns:svgjs="http://svgjs.dev/svgjs" width="2000" height="227" viewBox="0 0 2000 227"><g transform="matrix(1,0,0,1,-1.2121212121212466,-0.9497746301023682)"><svg viewBox="0 0 396 45" data-background-color="#ffffff" preserveAspectRatio="xMidYMid meet" height="227" width="2000" xmlns="http://www.w3.org/2000/svg" xmlns:xlink="http://www.w3.org/1999/xlink"><defs></defs><g id="tight-bounds" transform="matrix(1,0,0,1,0.2400000000000091,0.1882813143374733)"><svg viewBox="0 0 395.52 44.623437371325046" height="44.623437371325046" width="395.52"><g><svg viewBox="0 0 395.52 44.623437371325046" height="44.623437371325046" width="395.52"><g><svg viewBox="0 0 395.52 44.623437371325046" height="44.623437371325046" width="395.52"><g><svg viewBox="0 0 395.52 44.623437371325046" height="44.623437371325046" width="395.52"><g><svg viewBox="0 0 395.52 44.623437371325046" height="44.623437371325046" width="395.52"><g transform="matrix(1,0,0,1,0,0)"><svg width="395.52" viewBox="-0.10000000149011612 -33.45000076293945 296.44000244140625 33.45000076293945" height="44.623437371325046" data-palette-color="#ffcf31"><path d="M10.69-33.45L18.21-33.45Q20.68-33.45 22.68-32.71 24.68-31.98 26.09-30.71 27.49-29.44 28.25-27.75 29-26.05 29-24.15L29-24.15 29-9.3Q29-7.4 28.25-5.7 27.49-4 26.09-2.73 24.68-1.46 22.68-0.73 20.68 0 18.21 0L18.21 0 10.69 0Q8.23 0 6.23-0.73 4.22-1.46 2.82-2.73 1.42-4 0.66-5.7-0.1-7.4-0.1-9.3L-0.1-9.3-0.1-24.15Q-0.1-26.05 0.66-27.75 1.42-29.44 2.82-30.71 4.22-31.98 6.23-32.71 8.23-33.45 10.69-33.45L10.69-33.45ZM15.21-29.17L14.4-30.86 13.06-31.25 9.86-31.25 7.81-30.91 6.25-29.35 6.25-11.06 8.86-11.06 8.86-28.44Q9.2-28.52 9.47-28.54 9.74-28.56 10.06-28.66L10.06-28.66 12.84-28.66Q13.11-28.56 13.37-28.54 13.62-28.52 13.89-28.44L13.89-28.44 13.89-18.09 16.5-18.09 16.5-28.44 17.55-28.66 20.36-28.66Q20.65-28.56 20.95-28.54 21.24-28.52 21.56-28.44L21.56-28.44 21.56-11.06 24.15-11.06 24.15-29.35 22.61-30.91 20.56-31.25 17.36-31.25 16.04-30.86 15.21-29.17ZM39.6-33.45L47.12-33.45Q49.58-33.45 51.58-32.71 53.59-31.98 54.99-30.71 56.39-29.44 57.15-27.75 57.91-26.05 57.91-24.15L57.91-24.15 57.91-9.3Q57.91-7.4 57.15-5.7 56.39-4 54.99-2.73 53.59-1.46 51.58-0.73 49.58 0 47.12 0L47.12 0 39.6 0Q37.13 0 35.13-0.73 33.13-1.46 31.72-2.73 30.32-4 29.56-5.7 28.81-7.4 28.81-9.3L28.81-9.3 28.81-24.15Q28.81-26.05 29.56-27.75 30.32-29.44 31.72-30.71 33.13-31.98 35.13-32.71 37.13-33.45 39.6-33.45L39.6-33.45ZM52.15-14.99L52.15-27.29 51.8-29.35 50.27-30.91 47.75-31.25 41.21-31.25 38.72-30.91 37.16-29.35 36.86-27.29 36.86-14.99 37.16-12.89 38.77-11.35 41.21-11.06 47.75-11.06 50.27-11.35 51.8-12.89 52.15-14.99ZM49.56-15.26L49.22-13.89 47.6-13.65 41.35-13.65 39.77-13.89 39.4-15.36 39.4-27.05 39.65-28.39 41.35-28.66 47.6-28.66 49.31-28.39 49.56-26.95 49.56-15.26ZM71.6-11.35L73.16-10.89 74.8-11.35 76.26-12.79 81.05-30.76 78.22-31.25 73.8-13.79 73.26-13.6 72.6-13.75 68.21-31.25 65.35-30.76 70.16-12.79 71.6-11.35ZM68.5-33.45L76.02-33.45Q78.49-33.45 80.49-32.71 82.49-31.98 83.89-30.71 85.3-29.44 86.05-27.75 86.81-26.05 86.81-24.15L86.81-24.15 86.81-9.3Q86.81-7.4 86.05-5.7 85.3-4 83.89-2.73 82.49-1.46 80.49-0.73 78.49 0 76.02 0L76.02 0 68.5 0Q66.04 0 64.03-0.73 62.03-1.46 60.63-2.73 59.22-4 58.47-5.7 57.71-7.4 57.71-9.3L57.71-9.3 57.71-24.15Q57.71-26.05 58.47-27.75 59.22-29.44 60.63-30.71 62.03-31.98 64.03-32.71 66.04-33.45 68.5-33.45L68.5-33.45ZM101.21-13.65L95.45-13.65 95.45-11.06 109.56-11.06 109.56-13.65 103.83-13.65 103.83-28.66 109.56-28.66 109.56-31.25 95.45-31.25 95.45-28.66 101.21-28.66 101.21-13.65ZM97.4-33.45L104.92-33.45Q107.39-33.45 109.39-32.71 111.39-31.98 112.8-30.71 114.2-29.44 114.96-27.75 115.72-26.05 115.72-24.15L115.72-24.15 115.72-9.3Q115.72-7.4 114.96-5.7 114.2-4 112.8-2.73 111.39-1.46 109.39-0.73 107.39 0 104.92 0L104.92 0 97.4 0Q94.94 0 92.94-0.73 90.93-1.46 89.53-2.73 88.13-4 87.37-5.7 86.61-7.4 86.61-9.3L86.61-9.3 86.61-24.15Q86.61-26.05 87.37-27.75 88.13-29.44 89.53-30.71 90.93-31.98 92.94-32.71 94.94-33.45 97.4-33.45L97.4-33.45ZM137.71-11.06L137.71-13.65 127.97-13.65 127.97-19.85 136.12-19.85 136.12-22.41 127.97-22.41 127.97-28.66 137.37-28.66 137.37-31.25 125.43-31.25 125.43-11.06 137.71-11.06ZM126.31-33.45L133.83-33.45Q136.29-33.45 138.3-32.71 140.3-31.98 141.7-30.71 143.11-29.44 143.86-27.75 144.62-26.05 144.62-24.15L144.62-24.15 144.62-9.3Q144.62-7.4 143.86-5.7 143.11-4 141.7-2.73 140.3-1.46 138.3-0.73 136.29 0 133.83 0L133.83 0 126.31 0Q123.84 0 121.84-0.73 119.84-1.46 118.43-2.73 117.03-4 116.27-5.7 115.52-7.4 115.52-9.3L115.52-9.3 115.52-24.15Q115.52-26.05 116.27-27.75 117.03-29.44 118.43-30.71 119.84-31.98 121.84-32.71 123.84-33.45 126.31-33.45L126.31-33.45ZM162.92-28.34L164.51-28.71 170.86-28.71 173.37-28.3 173.86-30.91 171.03-31.25 164.46-31.25 161.97-30.86 160.41-29.3 160.07-27.25 160.07-14.99 160.41-12.89 162.02-11.35 164.46-11.06 170.57-11.06 173.03-11.35 174.62-12.89 174.96-14.99 174.96-21.41 167.88-21.41 167.88-18.8 172.37-18.8 172.37-15.36Q172.25-14.97 172.2-14.62 172.15-14.28 172.03-13.89L172.03-13.89 170.42-13.65 164.51-13.65 163.02-13.89 162.68-15.45 162.68-27 162.92-28.34ZM162.41-33.45L169.93-33.45Q172.4-33.45 174.4-32.71 176.4-31.98 177.8-30.71 179.21-29.44 179.97-27.75 180.72-26.05 180.72-24.15L180.72-24.15 180.72-9.3Q180.72-7.4 179.97-5.7 179.21-4 177.8-2.73 176.4-1.46 174.4-0.73 172.4 0 169.93 0L169.93 0 162.41 0Q159.95 0 157.94-0.73 155.94-1.46 154.54-2.73 153.13-4 152.38-5.7 151.62-7.4 151.62-9.3L151.62-9.3 151.62-24.15Q151.62-26.05 152.38-27.75 153.13-29.44 154.54-30.71 155.94-31.98 157.94-32.71 159.95-33.45 162.41-33.45L162.41-33.45ZM202.72-11.06L202.72-13.65 192.98-13.65 192.98-19.85 201.13-19.85 201.13-22.41 192.98-22.41 192.98-28.66 202.38-28.66 202.38-31.25 190.44-31.25 190.44-11.06 202.72-11.06ZM191.32-33.45L198.84-33.45Q201.3-33.45 203.3-32.71 205.3-31.98 206.71-30.71 208.11-29.44 208.87-27.75 209.63-26.05 209.63-24.15L209.63-24.15 209.63-9.3Q209.63-7.4 208.87-5.7 208.11-4 206.71-2.73 205.3-1.46 203.3-0.73 201.3 0 198.84 0L198.84 0 191.32 0Q188.85 0 186.85-0.73 184.85-1.46 183.44-2.73 182.04-4 181.28-5.7 180.52-7.4 180.52-9.3L180.52-9.3 180.52-24.15Q180.52-26.05 181.28-27.75 182.04-29.44 183.44-30.71 184.85-31.98 186.85-32.71 188.85-33.45 191.32-33.45L191.32-33.45ZM232.28-11.06L232.28-27.34 231.94-29.39 230.38-30.96 227.89-31.25 221.78-31.25 217.39-30.64 217.39-11.06 219.98-11.06 219.98-28.39 221.88-28.71 227.74-28.71 229.42-28.44 229.67-27 229.67-11.06 232.28-11.06ZM220.22-33.45L227.74-33.45Q230.2-33.45 232.21-32.71 234.21-31.98 235.61-30.71 237.02-29.44 237.77-27.75 238.53-26.05 238.53-24.15L238.53-24.15 238.53-9.3Q238.53-7.4 237.77-5.7 237.02-4 235.61-2.73 234.21-1.46 232.21-0.73 230.2 0 227.74 0L227.74 0 220.22 0Q217.75 0 215.75-0.73 213.75-1.46 212.35-2.73 210.94-4 210.19-5.7 209.43-7.4 209.43-9.3L209.43-9.3 209.43-24.15Q209.43-26.05 210.19-27.75 210.94-29.44 212.35-30.71 213.75-31.98 215.75-32.71 217.75-33.45 220.22-33.45L220.22-33.45ZM252.93-13.65L247.17-13.65 247.17-11.06 261.28-11.06 261.28-13.65 255.54-13.65 255.54-28.66 261.28-28.66 261.28-31.25 247.17-31.25 247.17-28.66 252.93-28.66 252.93-13.65ZM249.12-33.45L256.64-33.45Q259.11-33.45 261.11-32.71 263.11-31.98 264.52-30.71 265.92-29.44 266.68-27.75 267.43-26.05 267.43-24.15L267.43-24.15 267.43-9.3Q267.43-7.4 266.68-5.7 265.92-4 264.52-2.73 263.11-1.46 261.11-0.73 259.11 0 256.64 0L256.64 0 249.12 0Q246.66 0 244.66-0.73 242.65-1.46 241.25-2.73 239.85-4 239.09-5.7 238.33-7.4 238.33-9.3L238.33-9.3 238.33-24.15Q238.33-26.05 239.09-27.75 239.85-29.44 241.25-30.71 242.65-31.98 244.66-32.71 246.66-33.45 249.12-33.45L249.12-33.45ZM289.43-11.06L289.43-13.65 279.69-13.65 279.69-19.85 287.84-19.85 287.84-22.41 279.69-22.41 279.69-28.66 289.09-28.66 289.09-31.25 277.15-31.25 277.15-11.06 289.43-11.06ZM278.03-33.45L285.55-33.45Q288.01-33.45 290.01-32.71 292.02-31.98 293.42-30.71 294.82-29.44 295.58-27.75 296.34-26.05 296.34-24.15L296.34-24.15 296.34-9.3Q296.34-7.4 295.58-5.7 294.82-4 293.42-2.73 292.02-1.46 290.01-0.73 288.01 0 285.55 0L285.55 0 278.03 0Q275.56 0 273.56-0.73 271.56-1.46 270.15-2.73 268.75-4 267.99-5.7 267.24-7.4 267.24-9.3L267.24-9.3 267.24-24.15Q267.24-26.05 267.99-27.75 268.75-29.44 270.15-30.71 271.56-31.98 273.56-32.71 275.56-33.45 278.03-33.45L278.03-33.45Z" opacity="1" transform="matrix(1,0,0,1,0,0)" fill="#ffcf31" class="undefined-text-0" data-fill-palette-color="primary" id="text-0"></path></svg></g></svg></g></svg></g></svg></g></svg></g></svg><rect width="395.52" height="44.623437371325046" fill="none" stroke="none" visibility="hidden"></rect></g></svg></g></svg>